 <svg  version="1.0" xmlns="http://www.w3.org/2000/svg"  width="300.000000pt" height="260.000000pt" viewBox="0 0 300.000000 260.000000"  preserveAspectRatio="xMidYMid meet">  <g transform="translate(0.000000,260.000000) scale(0.050000,-0.050000)" fill="#c8d373" stroke="none"> <path d="M1560 5066 c-35 -19 -89 -24 -181 -16 -154 13 -222 -24 -376 -206 -101 -119 -140 -137 -217 -97 -355 184 -742 -245 -530 -587 73 -117 75 -203 8 -330 -18 -33 -30 -67 -28 -75 2 -8 -5 -15 -16 -15 -21 0 -5 -100 18 -120 7 -5 29 -62 50 -125 34 -101 151 -273 153 -224 0 11 12 3 27 -16 14 -19 59 -48 99 -65 40 -17 73 -40 73 -51 0 -12 8 -16 18 -10 23 14 85 -8 74 -26 -4 -7 5 -25 20 -39 16 -15 28 -17 28 -5 0 12 14 21 31 21 23 0 20 -11 -15 -47 -25 -26 -51 -45 -58 -41 -7 4 -23 -16 -35 -44 -13 -28 -32 -45 -44 -38 -11 7 -18 1 -14 -13 3 -14 -7 -26 -22 -26 -14 -1 -39 -19 -55 -41 -17 -22 -32 -36 -34 -32 -7 15 -169 -95 -197 -133 -15 -20 -46 -50 -69 -66 -24 -16 -42 -33 -41 -39 1 -5 -21 -40 -48 -77 -27 -36 -50 -72 -50 -80 -1 -7 -8 -71 -16 -143 -16 -145 -17 -175 -8 -360 3 -71 13 -141 21 -155 10 -15 7 -25 -7 -25 -18 0 -18 -7 -1 -28 18 -22 18 -31 -2 -38 -14 -6 -6 -12 19 -12 37 -2 45 -14 45 -64 0 -45 11 -65 40 -72 22 -6 40 -27 40 -47 0 -56 34 -65 79 -20 23 23 58 41 78 41 49 0 85 43 166 198 37 70 74 127 82 126 8 -1 40 6 72 15 32 9 69 9 84 1 14 -9 46 -9 70 0 25 10 51 12 58 5 6 -7 40 -15 75 -18 64 -5 102 -40 87 -81 -5 -13 2 -20 16 -14 23 8 87 -121 77 -157 -2 -8 4 -15 14 -15 10 0 38 -47 62 -105 70 -169 275 -304 341 -224 14 17 38 26 53 20 16 -6 23 -2 16 9 -7 11 5 20 26 20 22 0 51 14 65 31 14 17 37 26 51 21 13 -5 30 3 36 19 6 16 25 29 41 29 17 0 31 7 31 15 0 13 87 71 124 82 8 2 48 35 89 72 41 38 82 64 91 59 9 -6 16 -1 16 11 0 40 164 23 234 -24 36 -25 66 -52 66 -61 0 -9 9 -11 20 -4 11 7 26 -4 34 -24 7 -20 25 -43 40 -52 15 -9 22 -25 15 -35 -6 -11 3 -19 20 -19 17 0 31 -13 31 -29 0 -16 43 -76 95 -133 52 -57 93 -111 90 -121 -3 -9 2 -16 10 -14 29 6 198 -82 275 -143 137 -109 211 -95 369 69 110 114 141 92 141 -103 0 -147 35 -201 247 -378 198 -166 241 -184 357 -149 45 13 114 18 158 11 117 -20 171 19 410 297 23 27 47 33 85 24 268 -66 422 -2 561 229 66 110 20 370 -76 429 -32 20 -27 177 8 244 39 76 38 128 -8 231 -123 280 -124 265 14 284 67 8 112 28 144 62 26 28 68 50 93 50 53 0 62 42 18 79 -16 13 -34 50 -41 81 -12 53 -54 99 -221 239 l-58 49 69 28 c38 15 95 50 128 77 34 29 74 46 95 40 53 -13 62 16 19 55 -21 19 -62 72 -91 118 -29 46 -95 109 -147 140 -52 31 -121 80 -154 108 l-59 52 69 52 c185 138 400 401 400 490 0 16 19 43 42 59 53 37 35 71 -30 58 -32 -6 -63 6 -93 36 -53 53 -160 50 -669 -19 -165 -22 -660 -86 -1100 -142 -440 -56 -858 -114 -930 -129 -282 -60 -552 -56 -445 7 39 24 1 67 -44 50 -12 -5 -53 14 -90 42 -86 63 -181 64 -371 2 -77 -26 -144 -43 -148 -40 -9 8 130 183 181 228 113 100 164 253 115 344 -16 30 -15 64 3 128 32 115 8 170 -131 308 -60 59 -104 114 -98 123 6 10 -3 17 -19 17 -16 0 -33 7 -36 15 -9 20 -113 92 -187 129 -51 25 -67 26 -110 2z m-99 -266 c58 0 77 10 95 50 27 58 45 61 122 21 46 -24 55 -39 47 -81 -15 -79 60 -150 144 -136 95 15 145 -98 70 -159 -65 -52 -66 -149 -4 -190 81 -53 37 -190 -56 -172 -82 17 -147 -55 -130 -143 18 -96 -107 -144 -169 -64 -48 60 -130 53 -190 -17 -60 -69 -181 -19 -163 69 16 80 -60 151 -142 133 -93 -20 -148 99 -75 160 70 57 69 161 0 193 -57 26 -58 28 -27 115 20 59 28 63 87 52 77 -14 142 61 133 154 -9 86 113 135 157 63 22 -36 47 -48 101 -48z m-763 -225 c46 28 72 4 72 -65 0 -22 20 -49 45 -60 52 -22 60 -80 14 -98 -22 -8 -30 -32 -25 -77 5 -58 0 -66 -51 -72 -36 -4 -61 -20 -68 -45 -12 -47 -60 -49 -110 -4 -30 27 -45 30 -74 11 -41 -25 -96 15 -73 52 20 33 -10 83 -50 83 -50 0 -48 50 3 101 33 33 37 48 18 70 -33 40 9 88 63 74 29 -7 43 1 51 31 15 58 70 65 111 16 29 -36 40 -38 74 -17z m189 -502 c17 -65 91 -95 145 -60 63 41 127 -31 89 -101 -30 -57 -10 -104 61 -139 74 -37 75 -110 1 -138 -69 -26 -96 -95 -60 -153 43 -69 -58 -139 -116 -81 -31 31 -124 -17 -131 -69 -9 -64 -123 -60 -133 4 -8 60 -89 93 -143 59 -60 -37 -135 41 -98 101 34 55 -4 144 -62 144 -32 0 -40 13 -40 70 0 60 7 70 48 70 58 0 85 78 50 144 -32 60 44 127 106 94 59 -32 130 -6 144 52 18 70 122 72 139 3z m4755 -211 c-58 -48 -93 -58 -220 -68 -84 -7 -670 -80 -1303 -163 -1304 -171 -1239 -165 -1239 -111 0 22 10 40 21 40 34 0 2645 339 2679 348 111 28 132 13 62 -46z m-122 -90 c0 -5 -70 -66 -156 -137 l-156 -129 -918 -115 c-871 -109 -921 -113 -984 -83 -87 41 -96 41 -241 -16 -136 -53 -127 -58 -154 78 l-12 60 1216 157 c668 86 1251 164 1295 173 109 21 110 21 110 12z m-3935 -69 c48 -9 1 -65 -90 -108 -121 -58 -140 -42 -68 53 47 62 69 70 158 55z m792 -17 c-49 -31 -129 -181 -107 -202 5 -5 125 5 267 23 141 18 267 33 278 33 19 0 75 -255 65 -295 -2 -8 -100 -49 -216 -91 -117 -42 -215 -79 -219 -82 -3 -3 20 -64 52 -135 l58 -129 -81 -89 c-288 -316 -681 -719 -701 -719 -13 1 -58 50 -101 110 -96 134 -76 135 -292 -10 l-178 -120 -253 0 c-261 0 -329 16 -329 78 0 43 82 61 280 62 117 0 400 134 400 188 0 4 -139 91 -309 193 l-310 186 255 93 254 94 70 -55 c108 -84 425 -279 453 -279 14 0 156 170 316 379 258 336 315 421 282 421 -12 0 -1453 -543 -1561 -588 -106 -45 -105 -43 379 355 l399 329 301 131 c318 139 343 146 501 150 l100 2 -53 -33z m2744 -254 c-12 -16 -70 -35 -127 -42 -1063 -137 -1867 -275 -1924 -330 -49 -48 -469 -253 -480 -235 -13 22 -89 222 -85 225 3 2 166 59 363 126 l358 122 69 -35 c65 -34 989 62 1685 174 167 27 168 27 141 -5z m112 -327 c213 -118 387 -219 387 -225 0 -26 -531 4 -563 33 -18 16 -147 104 -288 196 l-256 168 79 13 c43 7 92 16 108 19 107 23 162 2 533 -204z m-3255 -185 c-143 -187 -267 -340 -274 -340 -26 0 -453 290 -454 307 0 17 914 369 964 372 14 0 -92 -152 -236 -339z m2628 245 l139 -95 -78 -15 c-42 -8 -369 -55 -727 -106 -777 -109 -780 -109 -780 -129 0 -9 102 -136 226 -283 l226 -267 458 -5 c281 -4 467 -14 479 -26 15 -15 -151 -17 -529 -7 l-550 14 -400 260 c-220 143 -407 266 -416 274 -9 7 68 48 170 90 102 41 216 103 252 138 64 61 75 63 670 155 756 117 691 117 860 2z m329 -219 l115 -75 -80 -13 c-200 -34 -485 -42 -688 -18 -199 24 -238 22 -619 -29 -294 -39 -413 -49 -429 -33 -12 12 -18 23 -13 24 43 10 1502 214 1544 215 32 2 101 -27 170 -71z m-624 -157 c193 -31 353 -121 789 -442 60 -45 -282 -61 -1034 -51 l-424 6 -171 202 c-94 112 -167 207 -162 211 10 11 657 100 746 103 36 1 151 -12 256 -29z m934 -236 c217 -135 401 -253 410 -262 47 -50 -446 14 -505 66 -34 29 -179 134 -324 233 l-263 180 103 12 c57 6 122 13 144 14 22 2 218 -107 435 -243z m-2216 -73 l429 -280 580 0 c319 0 584 -8 590 -17 13 -20 -149 -43 -310 -43 -62 0 -179 -6 -261 -13 l-148 -12 -56 -99 c-52 -95 -57 -98 -99 -71 -24 16 -305 185 -624 375 -660 393 -625 368 -591 409 39 46 28 51 490 -249z m-2114 17 c162 -100 298 -185 302 -189 32 -26 -224 -147 -292 -137 -142 21 -355 -33 -356 -91 -1 -28 -60 -174 -130 -326 l-129 -275 -13 265 c-7 147 -13 356 -14 466 l-1 200 164 135 c90 74 166 134 169 135 2 0 137 -82 300 -183z m2140 -184 c316 -191 607 -363 645 -383 39 -19 74 -38 78 -42 4 -4 -23 -110 -60 -235 l-67 -229 -356 343 c-196 189 -470 452 -609 584 -188 180 -250 250 -240 275 18 47 -22 68 609 -313z m-37 -343 c332 -319 600 -589 597 -600 -8 -32 -264 -409 -277 -410 -7 0 -50 56 -95 125 l-82 125 69 60 69 60 -89 180 c-81 163 -124 218 -477 590 -293 309 -383 416 -368 436 30 36 -3 65 653 -566z m-258 30 c318 -344 518 -635 466 -679 -9 -8 -53 -42 -99 -77 l-83 -64 -335 515 c-185 283 -367 558 -405 611 -67 93 -68 97 -32 136 42 47 0 86 488 -442z m-395 130 c71 -110 187 -281 256 -380 131 -186 127 -187 -65 -24 -113 96 -116 97 -220 85 l-106 -13 -93 199 -92 198 82 82 c45 45 88 76 95 68 7 -8 71 -105 143 -215z m-692 -103 l95 -134 122 133 122 133 93 -189 94 -188 -223 -156 c-123 -86 -234 -162 -246 -170 -20 -13 -290 559 -290 615 0 19 96 87 124 88 8 1 57 -59 109 -132z m3286 26 c23 -61 69 -78 132 -49 71 32 126 -20 95 -89 -25 -56 0 -102 69 -123 62 -20 66 -132 5 -132 -58 0 -92 -94 -51 -139 39 -43 -43 -139 -84 -98 -36 36 -119 3 -133 -53 -16 -63 -132 -75 -132 -13 0 54 -85 87 -135 52 -52 -36 -116 24 -95 90 21 66 -7 121 -61 121 -64 0 -73 117 -11 134 59 15 86 94 46 133 -46 46 30 130 88 97 46 -26 128 10 128 56 0 77 111 87 139 13z m-3530 -96 c18 -45 79 -186 135 -312 l102 -231 -68 -56 c-37 -31 -75 -55 -84 -52 -15 4 -298 637 -289 645 19 17 148 89 158 89 7 0 28 -37 46 -83z m2947 -61 c13 -112 -82 -215 -194 -210 -88 4 -107 -4 -198 -81 -124 -104 -132 -105 -115 -10 36 192 142 335 260 351 164 22 241 7 247 -50z m113 -396 c38 -14 51 -33 51 -76 0 -81 61 -131 137 -115 86 19 153 -94 85 -142 -63 -44 -57 -154 8 -183 55 -26 59 -38 30 -113 -14 -38 -33 -51 -76 -51 -81 0 -131 -61 -115 -137 21 -92 -92 -150 -149 -77 -49 62 -145 52 -177 -18 -25 -53 -37 -57 -112 -28 -38 14 -51 33 -51 76 0 80 -62 133 -139 117 -86 -17 -153 97 -84 144 63 41 59 148 -7 183 -56 30 -58 37 -30 109 14 38 33 51 76 51 81 0 131 61 115 137 -19 87 99 156 146 86 41 -63 149 -59 179 7 26 55 38 59 113 30z m663 -195 c20 -27 33 -30 62 -13 54 32 86 12 86 -54 0 -45 9 -58 40 -58 47 0 52 -52 10 -108 -21 -28 -23 -46 -8 -64 30 -37 5 -68 -55 -68 -34 0 -54 -13 -61 -40 -13 -48 -57 -52 -100 -9 -22 22 -37 24 -56 9 -37 -31 -90 -3 -84 47 2 27 -12 49 -41 62 -52 23 -59 67 -14 84 21 8 28 34 25 84 -5 66 -1 72 39 67 33 -5 50 7 65 45 22 60 55 65 92 16z"/> <path d="M1370 4577 c-183 -101 -128 -384 80 -409 223 -28 333 252 155 393 -56 43 -171 51 -235 16z"/> <path d="M531 4449 c-40 -41 -40 -117 0 -158 66 -65 174 -16 174 79 0 95 -108 144 -174 79z"/> <path d="M698 3822 c-160 -161 66 -398 231 -243 72 68 71 185 -2 252 -73 67 -155 64 -229 -9z"/> <path d="M1685 3034 c-201 -68 -363 -130 -360 -139 8 -25 361 -254 377 -244 21 13 398 484 398 498 0 21 -52 7 -415 -115z m169 -13 c-98 -63 -291 -122 -387 -119 -36 1 35 33 193 88 301 105 314 107 194 31z m-7 -143 c-140 -169 -197 -181 -107 -23 36 64 216 212 237 194 4 -3 -55 -80 -130 -171z m-146 -17 c-19 -35 -30 -38 -64 -19 -45 23 -31 49 33 62 54 11 57 7 31 -43z m-86 -42 c25 -16 45 -49 45 -75 0 -44 -5 -42 -120 36 -66 45 -120 84 -120 88 0 15 154 -23 195 -49z"/> <path d="M4847 1860 c-113 -45 -137 -173 -49 -262 133 -132 339 14 253 180 -22 43 -136 115 -159 101 -1 -1 -21 -9 -45 -19z"/> <path d="M4185 1169 c-163 -163 30 -426 234 -317 137 74 156 238 39 337 -91 76 -184 69 -273 -20z"/> <path d="M5069 1159 c-29 -32 -32 -52 -17 -95 35 -99 188 -78 188 27 0 99 -105 141 -171 68z"/> </g> </svg> 